<svg version="1.1" id="Layer_1" xmlns="http://www.w3.org/2000/svg" xmlns:xlink="http://www.w3.org/1999/xlink" x="0px" y="0px"
	 width="100%" viewBox="0 0 150 150" enable-background="new 0 0 150 150" xml:space="preserve">
<path fill="#A9C1FF" opacity="1.000000" stroke="none" 
	d="
M80.000000,151.000000 
	C53.355152,151.000000 27.210302,151.000000 1.032727,151.000000 
	C1.032727,101.063530 1.032727,51.127026 1.032727,1.095263 
	C50.894638,1.095263 100.789520,1.095263 150.842194,1.095263 
	C150.842194,50.999607 150.842194,100.999756 150.842194,151.000000 
	C127.460724,151.000000 103.980362,151.000000 80.000000,151.000000 
M20.165174,73.483040 
	C20.366661,73.753624 20.628288,73.939636 21.322361,74.496071 
	C21.868996,74.679985 22.415630,74.863907 23.078661,75.278198 
	C23.161716,75.312775 23.244772,75.347351 23.327827,75.381927 
	C23.232714,75.243332 23.137600,75.104736 22.680681,74.504539 
	C22.136740,74.316429 21.592798,74.128319 20.837458,73.502167 
	C20.626801,73.238113 20.358429,73.061989 19.783346,72.620453 
	C19.508522,72.562263 19.233698,72.504082 18.958874,72.445892 
	C19.296188,72.642715 19.633503,72.839546 20.165174,73.483040 
M24.511751,81.971390 
	C24.266729,82.102371 24.021706,82.233345 23.776686,82.364334 
	C24.198460,82.254013 24.620234,82.143700 25.472988,81.813263 
	C25.752516,81.623924 25.939825,81.367271 26.713644,81.142670 
	C30.230175,83.322083 32.919262,82.501846 34.483887,78.397354 
	C33.671692,78.298058 32.859501,78.198769 32.050354,77.964195 
	C32.050354,77.964195 32.027969,77.830750 31.896391,77.229050 
	C30.776495,74.653061 29.470606,74.744072 27.354643,76.947067 
	C26.913378,76.951569 26.472113,76.956070 25.919537,76.728966 
	C25.919537,76.728966 25.568913,76.738617 25.568913,76.738617 
	C25.568913,76.738617 25.964773,77.027748 26.209740,77.589104 
	C26.127010,78.715912 26.044279,79.842728 25.525618,81.181290 
	C25.244522,81.369148 25.055532,81.625038 24.511751,81.971390 
M25.623947,90.235596 
	C25.368219,90.430031 25.165634,90.669426 24.223783,90.857735 
	C21.816229,90.558952 19.408676,90.260162 16.923639,89.399658 
	C16.623913,88.936897 16.324184,88.474144 15.556927,87.386574 
	C11.471100,80.472160 13.758471,70.209122 20.842854,66.928772 
	C22.952669,66.409134 25.062487,65.889503 27.172304,65.369873 
	C27.158245,64.858093 27.144186,64.346313 27.130127,63.834534 
	C22.180979,62.587307 17.155617,62.378471 11.280019,64.070213 
	C10.860791,65.705917 10.441565,67.341621 9.600098,69.410995 
	C4.777250,70.616928 5.545980,76.069344 2.565203,78.674225 
	C3.036376,79.112617 3.507549,79.551018 4.061643,80.709267 
	C5.500035,83.482803 6.809171,86.334908 8.428222,88.998634 
	C9.313787,90.455597 10.622298,92.566338 11.914911,92.700737 
	C16.487181,93.176109 21.136585,92.992004 25.751741,92.869423 
	C26.336449,92.853897 26.891457,91.720177 27.460228,91.104515 
	C26.983236,90.732452 26.506245,90.360397 25.623947,90.235596 
M67.917549,96.814087 
	C76.432571,90.880638 76.644058,81.351868 68.342545,75.347504 
	C65.646881,73.397781 62.727024,71.750366 60.090328,69.729073 
	C57.738308,67.926025 55.832790,65.663506 57.942562,62.505348 
	C59.890255,59.589809 62.565636,59.657074 65.430084,61.073830 
	C66.719887,61.711765 68.024414,62.319935 70.956680,63.724514 
	C70.793533,60.348572 71.561272,57.335766 70.409645,56.072002 
	C67.376488,52.743492 58.473122,52.604473 53.935913,55.350227 
	C49.330975,58.136963 47.961662,62.909744 49.292332,67.532211 
	C50.259109,70.890602 53.068672,73.943741 55.649185,76.545151 
	C57.949558,78.864143 61.361366,80.072754 63.697861,82.366974 
	C64.955223,83.601593 65.875282,86.421143 65.315910,87.914330 
	C64.759972,89.398354 62.100765,91.067825 60.467785,90.967346 
	C57.309395,90.773018 54.224026,89.391869 50.983723,88.467064 
	C47.204525,93.122963 47.383671,95.272217 53.012058,96.588356 
	C57.518265,97.642090 62.426205,96.977837 67.917549,96.814087 
M137.252365,72.826935 
	C138.531601,74.201645 139.810837,75.576363 141.090073,76.951080 
	C139.657776,77.713348 138.271271,78.583427 136.783539,79.215210 
	C133.777313,80.491829 130.335922,81.110786 127.765076,82.961136 
	C123.716293,85.875206 123.341438,90.822044 126.056328,94.971306 
	C128.259354,98.338272 133.657166,99.476387 137.703522,97.306847 
	C138.987015,96.618683 140.088745,95.591492 141.273636,94.719437 
	C141.231415,95.167084 141.189178,95.614723 141.146957,96.062370 
	C143.243591,96.578133 145.422150,97.638947 147.396652,97.342163 
	C148.189621,97.222984 148.946671,94.136147 149.007156,92.375534 
	C149.201111,86.730507 149.142227,81.072342 149.023697,75.422554 
	C148.941116,71.484787 147.511093,67.476616 143.432510,67.029655 
	C138.342102,66.471809 133.065659,67.359108 127.910393,67.968216 
	C127.273079,68.043526 126.174767,70.582764 126.554672,71.369781 
	C127.088554,72.475761 128.768341,73.577026 130.026382,73.661377 
	C132.112122,73.801239 134.252289,73.129616 137.252365,72.826935 
M117.440956,79.983299 
	C118.949860,75.890923 120.458763,71.798546 121.986969,67.653824 
	C116.563133,66.017998 113.381889,66.787399 112.201241,72.359161 
	C111.334229,76.450760 109.520973,80.341858 107.848343,85.126312 
	C106.067757,80.240997 104.567574,76.257858 103.163353,72.241158 
	C101.062271,66.231140 99.804451,65.654205 92.954094,68.132240 
	C96.518120,76.864998 99.993004,85.620491 103.719360,94.267601 
	C104.325912,95.675125 106.104393,97.582703 107.235176,97.514015 
	C108.774178,97.420517 110.874573,95.970100 111.568779,94.537003 
	C113.731697,90.071838 115.345589,85.340721 117.440956,79.983299 
M88.891777,71.727150 
	C89.390533,68.085823 87.926140,66.812485 84.168449,66.828705 
	C80.110603,66.846222 80.123093,69.108841 80.151382,71.969948 
	C80.218506,78.759056 80.218185,85.549721 80.152443,92.338860 
	C80.122963,95.382797 80.162796,97.883919 84.426979,97.892746 
	C88.479897,97.901138 88.994537,95.815010 88.930527,92.550392 
	C88.800697,85.928772 88.891975,79.302811 88.891777,71.727150 
M88.891335,54.848892 
	C86.252625,54.392532 83.613907,53.936172 80.975197,53.479813 
	C80.758865,55.845104 79.729324,58.606174 80.618599,60.433384 
	C81.189804,61.607056 85.117981,62.360050 86.564972,61.552330 
	C88.004707,60.748657 88.223930,57.758488 88.891335,54.848892 
M32.449955,73.161728 
	C31.843157,71.576309 31.236359,69.990898 30.205753,67.298172 
	C27.531538,71.544479 29.070372,72.850716 32.449955,73.161728 
M29.699461,87.337715 
	C30.340044,86.556335 30.980625,85.774963 31.621208,84.993591 
	C31.197803,84.768372 30.774399,84.543152 30.350992,84.317932 
	C30.005373,85.179237 29.659754,86.040550 29.699461,87.337715 
M20.609329,85.111633 
	C20.680632,84.647858 20.751932,84.184074 20.823233,83.720291 
	C20.420513,83.850777 20.017794,83.981255 19.615076,84.111740 
	C19.805225,84.500214 19.995375,84.888680 20.609329,85.111633 
z"/>
<path fill="#FCFDFF" opacity="1.000000" stroke="none" 
	d="
M67.536697,96.945068 
	C62.426205,96.977837 57.518265,97.642090 53.012058,96.588356 
	C47.383671,95.272217 47.204525,93.122963 50.983723,88.467064 
	C54.224026,89.391869 57.309395,90.773018 60.467785,90.967346 
	C62.100765,91.067825 64.759972,89.398354 65.315910,87.914330 
	C65.875282,86.421143 64.955223,83.601593 63.697861,82.366974 
	C61.361366,80.072754 57.949558,78.864143 55.649185,76.545151 
	C53.068672,73.943741 50.259109,70.890602 49.292332,67.532211 
	C47.961662,62.909744 49.330975,58.136963 53.935913,55.350227 
	C58.473122,52.604473 67.376488,52.743492 70.409645,56.072002 
	C71.561272,57.335766 70.793533,60.348572 70.956680,63.724514 
	C68.024414,62.319935 66.719887,61.711765 65.430084,61.073830 
	C62.565636,59.657074 59.890255,59.589809 57.942562,62.505348 
	C55.832790,65.663506 57.738308,67.926025 60.090328,69.729073 
	C62.727024,71.750366 65.646881,73.397781 68.342545,75.347504 
	C76.644058,81.351868 76.432571,90.880638 67.536697,96.945068 
z"/>
<path fill="#FCFDFF" opacity="1.000000" stroke="none" 
	d="
M136.810944,72.813393 
	C134.252289,73.129616 132.112122,73.801239 130.026382,73.661377 
	C128.768341,73.577026 127.088554,72.475761 126.554672,71.369781 
	C126.174767,70.582764 127.273079,68.043526 127.910393,67.968216 
	C133.065659,67.359108 138.342102,66.471809 143.432510,67.029655 
	C147.511093,67.476616 148.941116,71.484787 149.023697,75.422554 
	C149.142227,81.072342 149.201111,86.730507 149.007156,92.375534 
	C148.946671,94.136147 148.189621,97.222984 147.396652,97.342163 
	C145.422150,97.638947 143.243591,96.578133 141.146957,96.062370 
	C141.189178,95.614723 141.231415,95.167084 141.273636,94.719437 
	C140.088745,95.591492 138.987015,96.618683 137.703522,97.306847 
	C133.657166,99.476387 128.259354,98.338272 126.056328,94.971306 
	C123.341438,90.822044 123.716293,85.875206 127.765076,82.961136 
	C130.335922,81.110786 133.777313,80.491829 136.783539,79.215210 
	C138.271271,78.583427 139.657776,77.713348 141.090073,76.951080 
	C139.810837,75.576363 138.531601,74.201645 136.810944,72.813393 
M135.580978,92.095871 
	C136.548615,91.935715 137.947372,92.120140 138.402695,91.550491 
	C139.743378,89.873184 140.806412,87.939957 141.683640,85.975403 
	C141.778076,85.763924 139.676880,83.932678 139.049393,84.152458 
	C136.733017,84.963760 134.511765,86.192116 132.547256,87.656166 
	C132.331055,87.817291 133.998474,90.505898 135.580978,92.095871 
z"/>
<path fill="#FCFDFF" opacity="1.000000" stroke="none" 
	d="
M117.306671,80.348022 
	C115.345589,85.340721 113.731697,90.071838 111.568779,94.537003 
	C110.874573,95.970100 108.774178,97.420517 107.235176,97.514015 
	C106.104393,97.582703 104.325912,95.675125 103.719360,94.267601 
	C99.993004,85.620491 96.518120,76.864998 92.954094,68.132240 
	C99.804451,65.654205 101.062271,66.231140 103.163353,72.241158 
	C104.567574,76.257858 106.067757,80.240997 107.848343,85.126312 
	C109.520973,80.341858 111.334229,76.450760 112.201241,72.359161 
	C113.381889,66.787399 116.563133,66.017998 121.986969,67.653824 
	C120.458763,71.798546 118.949860,75.890923 117.306671,80.348022 
z"/>
<path fill="#FBFCFF" opacity="1.000000" stroke="none" 
	d="
M88.891945,72.202896 
	C88.891975,79.302811 88.800697,85.928772 88.930527,92.550392 
	C88.994537,95.815010 88.479897,97.901138 84.426979,97.892746 
	C80.162796,97.883919 80.122963,95.382797 80.152443,92.338860 
	C80.218185,85.549721 80.218506,78.759056 80.151382,71.969948 
	C80.123093,69.108841 80.110603,66.846222 84.168449,66.828705 
	C87.926140,66.812485 89.390533,68.085823 88.891945,72.202896 
z"/>
<path fill="#D6E1FF" opacity="1.000000" stroke="none" 
	d="
M20.095755,67.021629 
	C13.758471,70.209122 11.471100,80.472160 15.586554,87.876793 
	C16.077827,88.898468 16.539474,89.429916 17.001123,89.961380 
	C19.408676,90.260162 21.816229,90.558952 24.833588,90.797462 
	C25.715014,90.547318 25.910301,90.297699 26.029253,89.988335 
	C26.506245,90.360397 26.983236,90.732452 27.460228,91.104515 
	C26.891457,91.720177 26.336449,92.853897 25.751741,92.869423 
	C21.136585,92.992004 16.487181,93.176109 11.914911,92.700737 
	C10.622298,92.566338 9.313787,90.455597 8.428222,88.998634 
	C6.809171,86.334908 5.500035,83.482803 4.366089,80.391823 
	C7.187715,82.079483 9.704894,84.084579 12.975996,86.690231 
	C12.975996,82.224907 13.306091,78.452271 12.845166,74.778893 
	C12.591687,72.758774 11.006889,70.905708 10.022337,68.977325 
	C10.441565,67.341621 10.860791,65.705917 11.655725,64.329124 
	C13.343353,65.401985 14.567210,66.492966 15.993725,66.946442 
	C17.242807,67.343521 18.719568,67.024384 20.095755,67.021629 
z"/>
<path fill="#AEC5FF" opacity="1.000000" stroke="none" 
	d="
M9.811217,69.194160 
	C11.006889,70.905708 12.591687,72.758774 12.845166,74.778893 
	C13.306091,78.452271 12.975996,82.224907 12.975996,86.690231 
	C9.704894,84.084579 7.187715,82.079483 4.324629,80.031891 
	C3.507549,79.551018 3.036376,79.112617 2.565202,78.674225 
	C5.545980,76.069344 4.777250,70.616928 9.811217,69.194160 
z"/>
<path fill="#F7F9FF" opacity="1.000000" stroke="none" 
	d="
M88.934837,55.287987 
	C88.223930,57.758488 88.004707,60.748657 86.564972,61.552330 
	C85.117981,62.360050 81.189804,61.607056 80.618599,60.433384 
	C79.729324,58.606174 80.758865,55.845104 80.975197,53.479813 
	C83.613907,53.936172 86.252625,54.392532 88.934837,55.287987 
z"/>
<path fill="#C9D8FF" opacity="1.000000" stroke="none" 
	d="
M20.469303,66.975204 
	C18.719568,67.024384 17.242807,67.343521 15.993725,66.946442 
	C14.567210,66.492966 13.343353,65.401985 12.018864,64.223289 
	C17.155617,62.378471 22.180979,62.587307 27.130127,63.834534 
	C27.144186,64.346313 27.158245,64.858093 27.172304,65.369873 
	C25.062487,65.889503 22.952669,66.409134 20.469303,66.975204 
z"/>
<path fill="#D6E1FF" opacity="1.000000" stroke="none" 
	d="
M26.030848,76.960571 
	C26.472113,76.956070 26.913378,76.951569 27.824787,77.232635 
	C29.539278,77.622391 30.783625,77.726570 32.027969,77.830750 
	C32.027969,77.830750 32.050354,77.964195 32.268848,78.237007 
	C33.271973,78.640106 34.056602,78.770401 34.841232,78.900696 
	C32.919262,82.501846 30.230175,83.322083 26.356867,81.072952 
	C26.000090,81.003242 25.961548,80.969536 25.961548,80.969536 
	C26.044279,79.842728 26.127010,78.715912 26.104996,77.292847 
	C26.000252,76.996582 26.030848,76.960571 26.030848,76.960571 
z"/>
<path fill="#ACC4FF" opacity="1.000000" stroke="none" 
	d="
M32.229561,73.384018 
	C29.070372,72.850716 27.531538,71.544479 30.205753,67.298172 
	C31.236359,69.990898 31.843157,71.576309 32.229561,73.384018 
z"/>
<path fill="#ACC4FF" opacity="1.000000" stroke="none" 
	d="
M31.962181,77.529900 
	C30.783625,77.726570 29.539278,77.622391 28.155785,77.238342 
	C29.470606,74.744072 30.776495,74.653061 31.962181,77.529900 
z"/>
<path fill="#ACC3FF" opacity="1.000000" stroke="none" 
	d="
M29.506798,87.119789 
	C29.659754,86.040550 30.005373,85.179237 30.350992,84.317932 
	C30.774399,84.543152 31.197803,84.768372 31.621208,84.993591 
	C30.980625,85.774963 30.340044,86.556335 29.506798,87.119789 
z"/>
<path fill="#ACC3FF" opacity="1.000000" stroke="none" 
	d="
M20.397427,85.194397 
	C19.995375,84.888680 19.805225,84.500214 19.615074,84.111740 
	C20.017794,83.981255 20.420513,83.850777 20.823233,83.720291 
	C20.751932,84.184074 20.680632,84.647858 20.397427,85.194397 
z"/>
<path fill="#ACC3FF" opacity="1.000000" stroke="none" 
	d="
M16.962381,89.680511 
	C16.539474,89.429916 16.077827,88.898468 15.820318,88.189194 
	C16.324184,88.474144 16.623913,88.936897 16.962381,89.680511 
z"/>
<path fill="#F7F9FF" opacity="1.000000" stroke="none" 
	d="
M34.662560,78.649025 
	C34.056602,78.770401 33.271973,78.640106 32.267326,78.304649 
	C32.859501,78.198769 33.671692,78.298058 34.662560,78.649025 
z"/>
<path fill="#D6E1FF" opacity="1.000000" stroke="none" 
	d="
M22.962265,75.047821 
	C22.415630,74.863907 21.868996,74.679985 21.162228,74.244652 
	C21.002096,73.993233 21.048857,73.940208 21.048857,73.940208 
	C21.592798,74.128319 22.136740,74.316429 22.840322,74.754578 
	C22.999964,75.004608 22.962265,75.047821 22.962265,75.047821 
z"/>
<path fill="#D6E1FF" opacity="1.000000" stroke="none" 
	d="
M25.042007,82.033386 
	C24.620234,82.143700 24.198460,82.254013 23.776684,82.364334 
	C24.021706,82.233345 24.266729,82.102371 24.754786,81.982513 
	C24.997820,81.993637 25.042007,82.033379 25.042007,82.033386 
z"/>
<path fill="#D6E1FF" opacity="1.000000" stroke="none" 
	d="
M19.970816,73.036377 
	C19.633503,72.839546 19.296188,72.642715 18.958874,72.445892 
	C19.233698,72.504082 19.508522,72.562263 19.891033,72.811806 
	C19.998720,73.003159 19.970816,73.036377 19.970816,73.036377 
z"/>
<path fill="#D6E1FF" opacity="1.000000" stroke="none" 
	d="
M25.982513,77.012161 
	C25.964773,77.027748 25.568913,76.738617 25.568913,76.738617 
	C25.568913,76.738617 25.919537,76.728966 25.975193,76.844772 
	C26.030848,76.960571 26.000252,76.996582 25.982513,77.012161 
z"/>
<path fill="#D6E1FF" opacity="1.000000" stroke="none" 
	d="
M23.021225,74.985374 
	C23.137600,75.104736 23.232714,75.243332 23.327827,75.381927 
	C23.244772,75.347351 23.161716,75.312775 23.020462,75.163010 
	C22.962265,75.047821 22.999964,75.004608 23.021225,74.985374 
z"/>
<path fill="#D6E1FF" opacity="1.000000" stroke="none" 
	d="
M24.978235,81.971298 
	C25.055532,81.625038 25.244522,81.369148 25.743584,81.075409 
	C25.961548,80.969536 26.000090,81.003242 26.017506,81.023270 
	C25.939825,81.367271 25.752516,81.623924 25.257498,81.923325 
	C25.042007,82.033379 24.997820,81.993637 24.978235,81.971298 
z"/>
<path fill="#D6E1FF" opacity="1.000000" stroke="none" 
	d="
M20.976076,74.017151 
	C20.628288,73.939636 20.366661,73.753624 20.067995,73.259705 
	C19.970816,73.036377 19.998720,73.003159 20.015530,72.988480 
	C20.358429,73.061989 20.626801,73.238113 20.943157,73.721191 
	C21.048857,73.940208 21.002096,73.993233 20.976076,74.017151 
z"/>
<path fill="#ACC3FF" opacity="1.000000" stroke="none" 
	d="
M25.826599,90.111969 
	C25.910301,90.297699 25.715014,90.547318 25.229792,90.845490 
	C25.165634,90.669426 25.368219,90.430031 25.826599,90.111969 
z"/>
<path fill="#AEC5FF" opacity="1.000000" stroke="none" 
	d="
M135.186615,92.059067 
	C133.998474,90.505898 132.331055,87.817291 132.547256,87.656166 
	C134.511765,86.192116 136.733017,84.963760 139.049393,84.152458 
	C139.676880,83.932678 141.778076,85.763924 141.683640,85.975403 
	C140.806412,87.939957 139.743378,89.873184 138.402695,91.550491 
	C137.947372,92.120140 136.548615,91.935715 135.186615,92.059067 
z"/>
</svg>